<svg width="24" height="24" viewBox="0 0 23 24" fill="none" xmlns="http://www.w3.org/2000/svg">
    <g clip-path="url(#clip0_20_37)">
        <path opacity="0.24" fill-rule="evenodd" clip-rule="evenodd" d="M7 22.1718V20.2206C7 19.9513 6.776 19.7328 6.5 19.7328H0.5C0.224 19.7328 0 19.9513 0 20.2206V22.1718C0 22.4411 0.224 22.6596 0.5 22.6596H6.5C6.776 22.6596 7 22.4411 7 22.1718Z" fill="#323232"/>
        <path opacity="0.24" fill-rule="evenodd" clip-rule="evenodd" d="M22.5 19.7328H16.5C16.224 19.7328 16 19.9513 16 20.2206V22.1718C16 22.4411 16.224 22.6596 16.5 22.6596H22.5C22.776 22.6596 23 22.4411 23 22.1718V20.2206C23 19.9513 22.776 19.7328 22.5 19.7328Z" fill="#323232"/>
        <path opacity="0.24" fill-rule="evenodd" clip-rule="evenodd" d="M14.5 22.6596C14.776 22.6596 15 22.4411 15 22.1718V20.2206C15 19.9513 14.776 19.7328 14.5 19.7328H8.5C8.224 19.7328 8 19.9513 8 20.2206V22.1718C8 22.4411 8.224 22.6596 8.5 22.6596H14.5Z" fill="#323232"/>
        <path fill-rule="evenodd" clip-rule="evenodd" d="M17 21.6869H22V16.8089H17V21.6869ZM22.5 15.8333H16.5C16.224 15.8333 16 16.0518 16 16.3211V22.1747C16 22.444 16.224 22.6625 16.5 22.6625H22.5C22.776 22.6625 23 22.444 23 22.1747V16.3211C23 16.0518 22.776 15.8333 22.5 15.8333ZM9 21.6869H14V16.8089H9V21.6869ZM14.5 15.8333H8.5C8.224 15.8333 8 16.0518 8 16.3211V22.1747C8 22.444 8.224 22.6625 8.5 22.6625H14.5C14.776 22.6625 15 22.444 15 22.1747V16.3211C15 16.0518 14.776 15.8333 14.5 15.8333ZM1 21.6869H6V16.8089H1V21.6869ZM6.5 15.8333H0.5C0.224 15.8333 0 16.0518 0 16.3211V22.1747C0 22.444 0.224 22.6625 0.5 22.6625H6.5C6.776 22.6625 7 22.444 7 22.1747V16.3211C7 16.0518 6.776 15.8333 6.5 15.8333ZM17 13.882H22V9.004H17V13.882ZM22.5 8.02839H16.5C16.224 8.02839 16 8.24693 16 8.51619V14.3699C16 14.6391 16.224 14.8577 16.5 14.8577H22.5C22.776 14.8577 23 14.6391 23 14.3699V8.51619C23 8.24693 22.776 8.02839 22.5 8.02839ZM9 13.882H14V9.004H9V13.882ZM14.5 8.02839H8.5C8.224 8.02839 8 8.24693 8 8.51619V14.3699C8 14.6391 8.224 14.8577 8.5 14.8577H14.5C14.776 14.8577 15 14.6391 15 14.3699V8.51619C15 8.24693 14.776 8.02839 14.5 8.02839ZM1 13.882H6V9.004H1V13.882ZM6.5 8.02839H0.5C0.224 8.02839 0 8.24693 0 8.51619V14.3699C0 14.6391 0.224 14.8577 0.5 14.8577H6.5C6.776 14.8577 7 14.6391 7 14.3699V8.51619C7 8.24693 6.776 8.02839 6.5 8.02839ZM17 6.07717H22V1.19912H17V6.07717ZM22.5 0.223511H16.5C16.224 0.223511 16 0.442047 16 0.711316V6.56497C16 6.83424 16.224 7.05278 16.5 7.05278H22.5C22.776 7.05278 23 6.83424 23 6.56497V0.711316C23 0.442047 22.776 0.223511 22.5 0.223511ZM9 6.07717H14V1.19912H9V6.07717ZM14.5 0.223511H8.5C8.224 0.223511 8 0.442047 8 0.711316V6.56497C8 6.83424 8.224 7.05278 8.5 7.05278H14.5C14.776 7.05278 15 6.83424 15 6.56497V0.711316C15 0.442047 14.776 0.223511 14.5 0.223511ZM1 6.07717H6V1.19912H1V6.07717ZM6.5 0.223511H0.5C0.224 0.223511 0 0.442047 0 0.711316V6.56497C0 6.83424 0.224 7.05278 0.5 7.05278H6.5C6.776 7.05278 7 6.83424 7 6.56497V0.711316C7 0.442047 6.776 0.223511 6.5 0.223511Z" fill="#323232"/>
    </g>
    <defs>
        <clipPath id="clip0_20_37">
            <rect width="23" height="23.4146" fill="white" transform="translate(0 0.219482)"/>
        </clipPath>
    </defs>
</svg>
